<svg xmlns="http://www.w3.org/2000/svg" data-name="Layer 12" viewBox="0 0 70.62 122.0625" x="0px" y="0px">
    <title>BattleAxe_Adventure</title>
    <path fill="#fff" d="M82.28,3.73l-.66-1.56L80.16,3a59.31,59.31,0,0,1-22.77,7.42V8.65a6.42,6.42,0,0,0-1.23-3.81A6.28,6.28,0,0,0,51,2.18h0a6.29,6.29,0,0,0-5.16,2.66,6.42,6.42,0,0,0-1.23,3.81v1.78A59.31,59.31,0,0,1,21.84,3l-1.46-.84-.66,1.56a51.47,51.47,0,0,0,0,39.92l.66,1.55,1.46-.84a59.31,59.31,0,0,1,22.77-7.42V83.29a4.12,4.12,0,0,0-3.25,4V88a4.11,4.11,0,0,0,3.53,4.06l3.93,6.51a2.54,2.54,0,0,0,4.36,0l3.93-6.51A4.11,4.11,0,0,0,60.64,88v-.69a4.13,4.13,0,0,0-3.25-4V36.94a59.31,59.31,0,0,1,22.77,7.42l1.46.84.66-1.55A51.47,51.47,0,0,0,82.28,3.73ZM47.61,8.65a3.51,3.51,0,0,1,.66-2.06,3.35,3.35,0,0,1,5.46,0,3.51,3.51,0,0,1,.66,2.06v2a54.78,54.78,0,0,1-6.78,0Zm0,42.45,6.78-1.46v8.25l-6.78,1.46Zm0,11.32L54.39,61V69.2l-6.78,1.47Zm0,11.31,6.78-1.46V83.2H47.61Zm6.78-27.16L47.61,48V37h6.78ZM51,96.4l-2.57-4.27h5.14ZM57.64,88a1.12,1.12,0,0,1-1.12,1.12h-11A1.12,1.12,0,0,1,44.36,88v-.69a1.12,1.12,0,0,1,1.12-1.12h11a1.12,1.12,0,0,1,1.12,1.12Zm22.5-47.08c-.77-.41-1.54-.79-2.31-1.17a51.25,51.25,0,0,0,2.31-12.11,1.5,1.5,0,0,0-3-.17,47.47,47.47,0,0,1-2.09,11,61.36,61.36,0,0,0-53.19,2.43,48.46,48.46,0,0,1,0-34.49c.92.49,1.85.95,2.79,1.4a51.15,51.15,0,0,0-2.39,12.34,1.5,1.5,0,0,0,3,.17A48.09,48.09,0,0,1,27.43,9.07,61.35,61.35,0,0,0,80.14,6.44,48.46,48.46,0,0,1,80.14,40.93Z" transform="translate(-15.69 -2.17)"/>
    <path fill="#fff" d="M78.72,17.35a1.5,1.5,0,0,0-1.5,1.5v1.41a1.5,1.5,0,1,0,3,0V18.85A1.5,1.5,0,0,0,78.72,17.35Z" transform="translate(-15.69 -2.17)"/>
</svg>