<?xml version="1.0" encoding="UTF-8"?>
<svg width="89px" height="88px" viewBox="0 0 89 88" version="1.1" xmlns="http://www.w3.org/2000/svg" xmlns:xlink="http://www.w3.org/1999/xlink">
    <!-- Generator: Sketch 63.1 (92452) - https://sketch.com -->
    <title>Untitled 3</title>
    <desc>Created with Sketch.</desc>
    <g id="Page-1" stroke="none" stroke-width="1" fill="none" fill-rule="evenodd">
        <g id="d10" fill="#FFFFFF" fill-rule="nonzero">
            <path d="M88.71,33 L82.71,23 C82.496931,22.6355544 82.1702449,22.3510214 81.78,22.19 L29.78,0.19 C28.8173886,-0.220235532 27.701276,0.180867454 27.22,1.11 L0.22,53.11 C-0.122854889,53.7721492 -0.0688908399,54.5700462 0.36,55.18 L7.36,65.18 C7.58304309,65.4941939 7.89209739,65.7372703 8.25,65.88 L60.25,86.88 C61.2095151,87.2686876 62.3070535,86.8609065 62.78,85.94 L88.78,34.94 C89.093109,34.3246045 89.066647,33.5912291 88.71,33 Z M33.91,40.14 L30.28,4.74 L78.79,25.24 L64.55,43.94 L33.91,40.14 Z M4.33,53.85 L28.53,7.23 L32,40.61 L13.78,57.83 L4.37,53.91 L4.33,53.85 Z M10.33,62.37 L6.51,57 L13.51,59.92 L13.51,59.92 L38.88,73.92 L10.33,62.37 Z M60.3,82 L60.05,82.49 L54.23,80.14 L15.69,58.79 L33.34,42.05 L63.9,45.87 L60.3,82 Z M62.8,77.09 L66,45.38 L80.25,26.64 L84.71,34.08 L62.8,77.09 Z" id="Shape"></path>
        </g>
    </g>
</svg>