<?xml version="1.0" encoding="UTF-8"?>
<svg width="87px" height="86px" viewBox="0 0 87 86" version="1.1" xmlns="http://www.w3.org/2000/svg" xmlns:xlink="http://www.w3.org/1999/xlink">
    <!-- Generator: Sketch 63.1 (92452) - https://sketch.com -->
    <title>Untitled 4</title>
    <desc>Created with Sketch.</desc>
    <g id="Page-1" stroke="none" stroke-width="1" fill="none" fill-rule="evenodd">
        <g id="d12" fill="#FFFFFF" fill-rule="nonzero">
            <path d="M86.85,40.33 L78.26,19.33 C78.1245567,18.9928889 77.8998469,18.6990377 77.61,18.48 L54.72,1.33 C54.2838469,1.02474871 53.7439926,0.905980777 53.22,1 L21.73,5.72 C21.2746809,5.79101931 20.8578553,6.0170942 20.55,6.36 L11,16.85 C10.8400057,17.0305728 10.7115448,17.2367865 10.62,17.46 L0.14,44.18 C-0.018865505,44.6194152 -0.018865505,45.1005848 0.14,45.54 L3.48,55.54 C3.56976784,55.7926408 3.7053701,56.0265546 3.88,56.23 L24.88,80.08 C25.0157768,80.233295 25.1742912,80.3648282 25.35,80.47 L32.5,84.76 C32.8018835,84.9432598 33.1469091,85.0433172 33.5,85.05 C33.6231349,85.0598932 33.7468651,85.0598932 33.87,85.05 L59.63,80.28 C59.8276074,80.2374015 60.0190989,80.1702116 60.2,80.08 L76.4,71.48 C76.8642545,71.2433667 77.2215823,70.8395863 77.4,70.35 L86.9,41.72 C87.0501715,41.265607 87.0324312,40.7724289 86.85,40.33 Z M74,20.79 L50.47,40 L19.39,28.07 L23.65,9.48 L53,5 L74,20.79 Z M14.22,19.27 L21.09,11.72 L17.26,28.37 L6.14,51 L4.14,44.94 L14.22,19.27 Z M7.11,53.91 L7,53.72 L18.71,30 L49.76,41.82 L54.3,69.94 L27.8,77.33 L27.62,77.22 L7.11,53.91 Z M58.58,76.39 L33.86,81 L30.16,78.78 L55.61,71.69 L70.21,70.27 L58.58,76.39 Z M74,67.86 L56.3,69.63 L51.73,41.5 L75.19,22.39 L82.87,41.16 L74,67.86 Z" id="Shape"></path>
        </g>
    </g>
</svg>