<?xml version="1.0" encoding="UTF-8"?>
<svg width="87px" height="84px" viewBox="0 0 87 84" version="1.1" xmlns="http://www.w3.org/2000/svg" xmlns:xlink="http://www.w3.org/1999/xlink">
    <!-- Generator: Sketch 63.1 (92452) - https://sketch.com -->
    <title>Untitled 5</title>
    <desc>Created with Sketch.</desc>
    <g id="Page-1" stroke="none" stroke-width="1" fill="none" fill-rule="evenodd">
        <g id="d20" fill="#FFFFFF" fill-rule="nonzero">
            <path d="M86.9,54.37 L72.9,12.37 C72.6945935,11.7481913 72.1977894,11.2663287 71.57,11.08 L34.57,0.08 C33.8603338,-0.133703935 33.0906743,0.0625592532 32.57,0.59 L1.57,31.59 C1.03027689,32.1289594 0.844096864,32.927982 1.09,33.65 L16.09,77.65 C16.3327767,78.3771068 16.9697907,78.9014781 17.73,79 L53.73,84 L54,84 C54.481408,84 54.946537,83.8256714 55.31,83.51 L86.31,56.51 C86.9208209,55.9812929 87.1535864,55.137025 86.9,54.37 Z M19.44,75 L26.6,40.05 L59.68,74.05 L19.44,75 Z M72.26,24.69 L27.33,36.61 L34.39,4.86 L72.26,24.69 Z M25.26,36.81 L6.16,32.66 L31.88,7 L25.26,36.81 Z M61.38,72.92 L27.91,38.53 L73.38,26.46 L73.5,26.81 L61.5,72.81 L61.38,72.92 Z M72,22.29 L41.48,6.29 L69.48,14.6 L72,22.29 Z M5.66,34.6 L24.82,38.77 L18.16,71.26 L5.66,34.6 Z M53.37,79.89 L30.5,76.72 L57.73,76.1 L53.37,79.89 Z M64.22,70.45 L74.66,30.29 L82.66,54.37 L64.22,70.45 Z" id="Shape"></path>
        </g>
    </g>
</svg>