<?xml version="1.0" encoding="UTF-8"?>
<svg width="80px" height="88px" viewBox="0 0 80 88" version="1.1" xmlns="http://www.w3.org/2000/svg" xmlns:xlink="http://www.w3.org/1999/xlink">
    <!-- Generator: Sketch 53.2 (72643) - https://sketchapp.com -->
    <title>Untitled</title>
    <desc>Created with Sketch.</desc>
    <g id="Page-1" stroke="none" stroke-width="1" fill="none" fill-rule="evenodd">
        <g id="d4" fill="#FFFFFF" fill-rule="nonzero">
            <path d="M78.68,62.81 L34.28,0.93 C33.8737873,0.365594132 33.2035654,0.052698276 32.5100509,0.10369199 C31.8165364,0.154685704 31.1992893,0.562248394 30.88,1.18 L1.16,58.86 C0.813485151,59.5355265 0.879338328,60.3490069 1.33,60.96 L20.56,87.18 C20.9355836,87.6939825 21.5334163,87.9984688 22.17,88 C22.4230665,87.9980888 22.6737251,87.9506669 22.91,87.86 L77.8,65.86 C78.3631119,65.6296886 78.7907747,65.1555848 78.9620204,64.5717926 C79.1332661,63.9880005 79.029473,63.358003 78.68,62.86 L78.68,62.81 Z M5.29,59.59 L30.61,10.44 L21.67,81.94 L5.29,59.59 Z M23.51,83.31 L33.15,6.21 L74,63.07 L23.51,83.31 Z" id="Shape"></path>
        </g>
    </g>
</svg>