<?xml version="1.0" encoding="UTF-8"?>
<svg width="75px" height="87px" viewBox="0 0 75 87" version="1.1" xmlns="http://www.w3.org/2000/svg" xmlns:xlink="http://www.w3.org/1999/xlink">
    <!-- Generator: Sketch 63.1 (92452) - https://sketch.com -->
    <title>Untitled</title>
    <desc>Created with Sketch.</desc>
    <g id="Page-1" stroke="none" stroke-width="1" fill="none" fill-rule="evenodd">
        <g id="d6" fill="#FFFFFF" fill-rule="nonzero">
            <path d="M73.08,24.84 L36.32,1.32 C35.6087275,0.849221553 34.6771541,0.881344776 34,1.4 L0.76,26.4 C0.242223526,26.8069752 -0.0420124499,27.4427662 -1.77635684e-15,28.1 L1,58.1 C1.02254754,58.7170944 1.32888519,59.2891707 1.83,59.65 L38.6,86.09 C38.940392,86.3364405 39.3497628,86.4693985 39.77,86.47 C40.2625339,86.48499 40.7432651,86.3176243 41.12,86 L72.35,57.48 C72.7477016,57.1167081 72.9820491,56.6083542 73,56.07 L74,26.59 C74.0232587,25.8852759 73.6737106,25.2203745 73.08,24.84 Z M35.34,5.43 L69.55,27.33 L39.7,53.33 L4.56,28.61 L35.34,5.43 Z M5,57 L4.12,30.77 L38.77,55.08 L38.77,81.29 L5,57 Z M40.8,80.9 L40.8,55 L69.89,29.68 L69,55.09 L40.8,80.9 Z" id="Shape"></path>
        </g>
    </g>
</svg>