<?xml version="1.0" encoding="UTF-8"?>
<svg width="88px" height="87px" viewBox="0 0 88 87" version="1.1" xmlns="http://www.w3.org/2000/svg" xmlns:xlink="http://www.w3.org/1999/xlink">
    <!-- Generator: Sketch 63.1 (92452) - https://sketch.com -->
    <title>Untitled 2</title>
    <desc>Created with Sketch.</desc>
    <g id="Page-1" stroke="none" stroke-width="1" fill="none" fill-rule="evenodd">
        <g id="d8" fill="#FFFFFF" fill-rule="nonzero">
            <path d="M87,20.72 C86.7543882,20.2398533 86.3252718,19.8792513 85.81,19.72 L21.64,0.69 C20.591236,0.370344135 19.4806241,0.954641958 19.15,2 L0.09,64.24 C-0.229655865,65.288764 0.354641958,66.3993759 1.4,66.73 L65.62,86.8 C65.8128788,86.8671298 66.0157752,86.9009459 66.22,86.9000193 C66.5453266,86.9000193 66.8653393,86.8174981 67.15,86.66 C67.6301467,86.4143882 67.9907487,85.9852718 68.15,85.47 L87.15,22.25 C87.3058351,21.7403835 87.2518414,21.1896482 87,20.72 Z M81.59,22.72 L31.8,52.2 L22.59,5.15 L81.59,22.72 Z M21.26,8.82 L29.94,53.15 L4.74,62.72 L21.26,8.82 Z M6.57,64.16 L30.88,54.93 L60.23,80.93 L6.57,64.16 Z M64.88,82.38 L32.78,53.94 L82.26,24.59 L64.88,82.38 Z" id="Shape"></path>
        </g>
    </g>
</svg>