<svg xmlns="http://www.w3.org/2000/svg" data-name="Layer 2" viewBox="0 0 90.83 117.6625" x="0px" y="0px">
    <title>Sword_Adventure</title>
    <path fill="#fff" d="M93.56,3.1A44.29,44.29,0,0,0,68.31,16.25L39.51,46.44l-7-6.66a6.67,6.67,0,0,0-10.07,8.65l2.71,3.86c1.31,1.87,2.71,3.66,4.16,5.41a38.46,38.46,0,0,0-3.46,3.58c-.57.64-1.12,1.26-1.63,1.79a46,46,0,0,0-9,12.78,14.63,14.63,0,0,0-1.41,6,7.61,7.61,0,1,0,4,12.71h0a7.6,7.6,0,0,0,1.85-7.14,14.54,14.54,0,0,0,5.93-1.7A46,46,0,0,0,38,76.18c.5-.52,1.09-1.1,1.7-1.7a41.1,41.1,0,0,0,3.4-3.6c1.94,1.48,3.94,2.89,6,4.2l3.76,2.37A6.67,6.67,0,0,0,61,67l-7-6.66,29.38-30.8A43.81,43.81,0,0,0,95.2,5.25l.35-2.46ZM15.67,92.49a4.61,4.61,0,0,1-7.95-3.08A4.57,4.57,0,0,1,9,86.12a4.62,4.62,0,0,1,8,3.08A4.54,4.54,0,0,1,15.67,92.49Zm1.92-8.7c-1.09-1-.92-3.56.45-6.75.2-.47.43-1,.68-1.45l4.62,7.88C20.68,84.59,18.56,84.72,17.59,83.79ZM26,82.11,20.45,72.6a47.49,47.49,0,0,1,3.95-5.22l3.1,1.52,5.15,8.28A42.44,42.44,0,0,1,26,82.11Zm9.79-8c-.31.33-.63.64-.94,1l-2.29-3.68,4,2Zm3-3-12.34-6c.51-.54,1.06-1.15,1.63-1.79A39.45,39.45,0,0,1,31.28,60a82.47,82.47,0,0,0,9.45,9A26,26,0,0,1,38.82,71.11Zm20.15-2a3.68,3.68,0,0,1-4.5,5.77l-3.76-2.38a80.35,80.35,0,0,1-23.09-22l-2.7-3.85A3.67,3.67,0,0,1,30.46,42Zm-7.08-10.9-4-3.84L58.76,43a1.5,1.5,0,1,0-2.17-2.07L45.7,52.34l-4-3.83L70.76,18h0L69.65,26.6a2.25,2.25,0,0,0,2.6,2.52l8.8-1.44ZM84.08,24.14,72.75,26,74.2,14.89A41.25,41.25,0,0,1,92,6.43,40.65,40.65,0,0,1,84.08,24.14Z" transform="translate(-4.72 -2.79)"/>
    <path fill="#fff" d="M66,33.29a1.5,1.5,0,0,0-2.12.05L62.44,34.8a1.5,1.5,0,0,0,.05,2.12h0a1.5,1.5,0,0,0,2.12-.05L66,35.41a1.5,1.5,0,0,0,0-2.12Z" transform="translate(-4.72 -2.79)"/>
    <path fill="#fff" d="M10.6,87.65a2.39,2.39,0,0,0,1.73,4A2.4,2.4,0,0,0,14,87.57,2.41,2.41,0,0,0,10.6,87.65Z" transform="translate(-4.72 -2.79)"/>
</svg>