<svg xmlns="http://www.w3.org/2000/svg" data-name="Layer 3" viewBox="0 0 95.69 123.32499999999999" x="0px" y="0px">
    <title>Sheild_Adventure</title>
    <path fill="#fff" d="M50.08,15.82l-6.82-8.5-.75,0A147.81,147.81,0,0,0,12,11.53l-1.16.27v9.73A81.28,81.28,0,0,0,49.34,91l.79.49.8-.49A81.28,81.28,0,0,0,89.4,21.53V11.8l-1.17-.27A171,171,0,0,0,57.18,7.34l-.79,0Zm7.77-5.44c2.14.09,4.28.24,6.42.42L63.09,16a1.5,1.5,0,0,0,1.13,1.79h0A1.5,1.5,0,0,0,66,16.64l1.26-5.55a169.19,169.19,0,0,1,19.12,3.1v7.34a78.28,78.28,0,0,1-36.27,66.4,78.27,78.27,0,0,1-36.26-66.4V14.19c1.59-.36,3.11-.69,4.6-1v.27a115.44,115.44,0,0,0,1.37,17.72l0,.16a1.5,1.5,0,0,0,1.71,1.26h0a1.5,1.5,0,0,0,1.25-1.72l0-.22a111.89,111.89,0,0,1-1.33-17.15v-.9a133.18,133.18,0,0,1,20.39-2.25l8.32,10.36Z" transform="translate(-2.29 -0.67)"/>
    <path fill="#fff" d="M96.8,5.89A230,230,0,0,0,57.18.67H40.52c-14,.44-24,2.32-37.06,5.22l-1.17.26V16.61c0,34.16,17,64.29,47.07,82.26l.77.46.77-.46C81,80.9,98,50.77,98,16.61V6.15ZM95,16.61c0,32.8-16.12,61.72-44.85,79.22C21.41,78.33,5.29,49.41,5.29,16.61v-8c12.42-2.72,22-4.47,35.27-4.89H57.09A227.71,227.71,0,0,1,95,8.56Z" transform="translate(-2.29 -0.67)"/>
    <path fill="#fff" d="M39.72,44A10.82,10.82,0,1,0,50.54,33.21,10.83,10.83,0,0,0,39.72,44Zm10.82-7.82A7.82,7.82,0,1,1,42.72,44,7.83,7.83,0,0,1,50.54,36.21Z" transform="translate(-2.29 -0.67)"/>
    <path fill="#fff" d="M72.48,58.77a53.9,53.9,0,0,0,7.8-18.72,1.51,1.51,0,0,0-1.21-1.77h0a1.5,1.5,0,0,0-1.74,1.18A50.92,50.92,0,0,1,70,57.12l-.41.56A1.48,1.48,0,0,0,70,59.85h0a1.49,1.49,0,0,0,1.89-.36Z" transform="translate(-2.29 -0.67)"/>
    <path fill="#fff" d="M50.88,78.49a1.32,1.32,0,0,1-1.59,0,57.06,57.06,0,0,1-8.07-7.38L41,70.85a1.5,1.5,0,0,0-2.12-.1h0a1.49,1.49,0,0,0-.11,2.12l.16.17a62,62,0,0,0,10.5,9.25h0a1.31,1.31,0,0,0,1.54-.05L56.41,78a1.49,1.49,0,0,0,.26-2.1h0a1.5,1.5,0,0,0-2.1-.26Z" transform="translate(-2.29 -0.67)"/>
    <path fill="#fff" d="M46.87,45.22h0a1.5,1.5,0,0,1-1.95-1.5A5.84,5.84,0,0,1,49,38.46l.85-.26a1.5,1.5,0,0,1,1.88,1h0a1.5,1.5,0,0,1-1,1.88l-.85.26a2.84,2.84,0,0,0-2,2.52A1.53,1.53,0,0,1,46.87,45.22Z" transform="translate(-2.29 -0.67)"/>
    <circle fill="#fff" cx="45.39" cy="47.09" r="1.63"/>
</svg>